<svg xmlns="http://www.w3.org/2000/svg" width="512" height="512" viewBox="0 0 512 512" role="img" aria-label="Crystal app icon large">
  <defs>
    <linearGradient id="grad512" x1="0%" y1="0%" x2="100%" y2="100%">
      <stop offset="0%" stop-color="#22c55e" />
      <stop offset="100%" stop-color="#0f172a" />
    </linearGradient>
    <filter id="shadow" x="-10%" y="-10%" width="120%" height="120%">
      <feDropShadow dx="0" dy="8" stdDeviation="12" flood-color="rgba(15,23,42,0.3)" />
    </filter>
  </defs>
  <rect x="48" y="48" width="416" height="416" rx="96" fill="url(#grad512)" filter="url(#shadow)" />
  <path d="M168 340c30-50 74-98 120-130 24-16 52-27 76-24 20 2 36 14 46 34 8 19 6 43-10 70-16 29-46 52-84 68-34 14-80 20-128 18-32-1-61-6-86-14z" fill="#ecfeff" opacity="0.9" />
  <path d="M176 324c24-38 60-76 92-100 18-13 41-21 58-19 17 2 30 12 37 28 7 16 4 36-8 56-14 24-38 42-70 54-30 11-66 16-104 14-23-1-45-4-63-9z" fill="#ffffff" opacity="0.85" />
  <circle cx="220" cy="256" r="26" fill="#0f172a" opacity="0.85" />
  <circle cx="308" cy="246" r="24" fill="#0f172a" opacity="0.85" />
</svg>
