<svg xmlns="http://www.w3.org/2000/svg" width="192" height="192" viewBox="0 0 192 192" role="img" aria-label="Crystal app icon">
  <defs>
    <linearGradient id="grad" x1="0%" y1="0%" x2="100%" y2="100%">
      <stop offset="0%" stop-color="#22c55e" />
      <stop offset="100%" stop-color="#0f172a" />
    </linearGradient>
  </defs>
  <rect x="12" y="12" width="168" height="168" rx="36" fill="url(#grad)" />
  <path d="M60 126c12-20 30-40 48-52 10-7 21-11 30-10 8 1 14 6 18 14 3 8 2 17-3 26-6 11-17 20-31 26-13 5-30 7-48 6-12-1-22-3-31-6z" fill="#ecfeff" opacity="0.9" />
  <path d="M64 120c10-16 25-32 38-42 8-6 17-9 24-8 7 1 12 5 15 11 3 6 2 14-3 22-5 9-14 16-26 20-11 4-25 6-40 5-9-1-18-2-25-4z" fill="#ffffff" opacity="0.85" />
  <circle cx="84" cy="92" r="10" fill="#0f172a" opacity="0.85" />
  <circle cx="124" cy="88" r="9" fill="#0f172a" opacity="0.85" />
</svg>
